<svg width="343.2915004867967" height="261.35625" viewBox="0 0 350.00000000000006 266.46359542920936" class="looka-1j8o68f"><defs id="SvgjsDefs1013"></defs><g id="SvgjsG1014" featurekey="AgVF85-0" transform="matrix(1.674761463897594,0,0,1.674761463897594,91.2619315966513,-5.387699656251005)" fill="#fdfdcb"><g xmlns="http://www.w3.org/2000/svg"><path d="M8.203,42.885l44.208,53.898c0,0-11.808-53.9,5.148-93.566L8.203,42.885z"></path><path d="M54.326,32.822c0,0-6.759,30.048-0.702,55.786c0,0-2.12-29.068,31.49-66.616L54.326,32.822z"></path><path d="M55.752,93.512c0,0-0.625-21.529,12.094-41.182h23.951C91.797,52.33,71.204,63.594,55.752,93.512z"></path></g></g><g id="SvgjsG1015" featurekey="vRT5cH-0" transform="matrix(3.620190307149417,0,0,3.620190307149417,-4.41663184673645,160.63688661124124)" fill="#ffffff"><path d="M5.64 20.3 c-0.61334 0 -1.1867 -0.11668 -1.72 -0.35002 s-1 -0.55 -1.4 -0.95 s-0.71666 -0.86666 -0.95 -1.4 s-0.35 -1.1067 -0.35 -1.72 c0 -0.25334 0.08666 -0.46668 0.26 -0.64002 s0.38668 -0.26 0.64002 -0.26 c0.24 0 0.44666 0.08666 0.62 0.26 s0.26 0.38668 0.26 0.64002 c0 0.36 0.07 0.7 0.21 1.02 s0.33 0.6 0.57 0.84 s0.52 0.43 0.84 0.57 s0.66 0.21 1.02 0.21 s0.70334 -0.07 1.03 -0.21 s0.61 -0.33 0.85 -0.57 s0.43 -0.52 0.57 -0.84 s0.21 -0.66 0.21 -1.02 c0 -0.44 -0.08666 -0.80334 -0.26 -1.09 s-0.41334 -0.53666 -0.72 -0.75 c-0.14666 -0.10666 -0.31332 -0.20332 -0.49998 -0.28998 s-0.38 -0.17666 -0.58 -0.27 c-0.2 -0.08 -0.40666 -0.16 -0.62 -0.24 s-0.43334 -0.16 -0.66 -0.24 c-0.44 -0.16 -0.88334 -0.34 -1.33 -0.54 s-0.84666 -0.45 -1.2 -0.75 s-0.64334 -0.67334 -0.87 -1.12 s-0.34 -0.99666 -0.34 -1.65 c0 -0.61334 0.11666 -1.1867 0.35 -1.72 s0.55 -1 0.95 -1.4 s0.86666 -0.71666 1.4 -0.95 s1.1067 -0.35 1.72 -0.35 s1.19 0.11666 1.73 0.35 s1.01 0.55 1.41 0.95 s0.71666 0.86666 0.95 1.4 s0.35 1.1067 0.35 1.72 c0 0.24 -0.08666 0.44666 -0.26 0.62 s-0.38668 0.26 -0.64002 0.26 c-0.24 0 -0.44666 -0.08666 -0.62 -0.26 s-0.26 -0.38 -0.26 -0.62 c0 -0.36 -0.07 -0.70334 -0.21 -1.03 s-0.33 -0.61 -0.57 -0.85 s-0.52334 -0.43 -0.85 -0.57 s-0.67 -0.21 -1.03 -0.21 s-0.7 0.07 -1.02 0.21 s-0.6 0.33 -0.84 0.57 s-0.43 0.52334 -0.57 0.85 s-0.21 0.67 -0.21 1.03 c0 0.4 0.08334 0.73334 0.25 1 s0.40332 0.5 0.70998 0.7 c0.32 0.2 0.68 0.38 1.08 0.54 l0.64 0.24 l0.66 0.24 c0.44 0.16 0.88334 0.34334 1.33 0.55 s0.84666 0.46666 1.2 0.78 s0.64334 0.70334 0.87 1.17 s0.34 1.04 0.34 1.72 c0 0.61334 -0.11666 1.1867 -0.35 1.72 s-0.55 1 -0.95 1.4 s-0.87 0.71666 -1.41 0.95 s-1.1167 0.35 -1.73 0.35 z M17.62 11.78 l-1.62 0 l0 7.64 c0 0.24 -0.08666 0.44666 -0.26 0.62 s-0.38668 0.26 -0.64002 0.26 c-0.24 0 -0.44666 -0.08666 -0.62 -0.26 s-0.26 -0.38 -0.26 -0.62 l0 -7.64 l-1.64 0 c-0.24 0 -0.44666 -0.08666 -0.62 -0.26 s-0.26 -0.38 -0.26 -0.62 c0 -0.25334 0.08666 -0.46668 0.26 -0.64002 s0.38 -0.26 0.62 -0.26 l1.64 0 l0 -2.94 c0 -0.25334 0.08666 -0.46334 0.26 -0.63 s0.38 -0.25 0.62 -0.25 c0.25334 0 0.46668 0.08334 0.64002 0.25 s0.26 0.37666 0.26 0.63 l0 2.94 l1.62 0 c0.25334 0 0.46668 0.08666 0.64002 0.26 s0.26 0.38668 0.26 0.64002 c0 0.24 -0.08666 0.44666 -0.26 0.62 s-0.38668 0.26 -0.64002 0.26 z M24.12 20.26 c-0.54666 0 -1.0633 -0.10334 -1.55 -0.31 s-0.91 -0.49 -1.27 -0.85 s-0.64334 -0.78334 -0.85 -1.27 s-0.31 -1.0033 -0.31 -1.55 l0 -5.3 c0 -0.25334 0.08666 -0.46668 0.26 -0.64002 s0.38668 -0.26 0.64002 -0.26 c0.24 0 0.44666 0.08666 0.62 0.26 s0.26 0.38668 0.26 0.64002 l0 5.3 c0 0.30666 0.05666 0.59332 0.17 0.85998 s0.27 0.5 0.47 0.7 s0.43334 0.35666 0.7 0.47 s0.55332 0.17 0.85998 0.17 c0.29334 0 0.57334 -0.05666 0.84 -0.17 s0.5 -0.27 0.7 -0.47 s0.36 -0.43334 0.48 -0.7 s0.18 -0.55332 0.18 -0.85998 l0 -5.3 c0 -0.25334 0.08666 -0.46668 0.26 -0.64002 s0.38 -0.26 0.62 -0.26 s0.44666 0.08666 0.62 0.26 s0.26 0.38668 0.26 0.64002 l0 5.3 c0 0.54666 -0.10334 1.0633 -0.31 1.55 s-0.49 0.91 -0.85 1.27 s-0.78 0.64334 -1.26 0.85 s-0.99334 0.31 -1.54 0.31 z M39.519999999999996 20.3 c-0.25334 0 -0.46668 -0.0867 -0.64002 -0.26004 s-0.26 -0.38 -0.26 -0.62 l0 -0.38 c-0.46666 0.4 -0.98666 0.71 -1.56 0.93 s-1.1733 0.33 -1.8 0.33 c-0.70666 0 -1.3733 -0.13666 -2 -0.41 s-1.1733 -0.64334 -1.64 -1.11 s-0.83666 -1.01 -1.11 -1.63 s-0.41 -1.2833 -0.41 -1.99 s0.13666 -1.3733 0.41 -2 s0.64334 -1.1733 1.11 -1.64 s1.0133 -0.83666 1.64 -1.11 s1.2933 -0.41 2 -0.41 c0.62666 0 1.2267 0.11 1.8 0.33 s1.0933 0.53666 1.56 0.95 l0 -5.88 c0 -0.24 0.08666 -0.44666 0.26 -0.62 s0.38668 -0.26 0.64002 -0.26 c0.24 0 0.44666 0.08666 0.62 0.26 s0.26 0.38 0.26 0.62 l0 14.02 c0 0.24 -0.08666 0.44666 -0.26 0.62 s-0.38 0.26 -0.62 0.26 z M35.26 11.78 c-0.46666 0 -0.90332 0.09 -1.31 0.27 s-0.76332 0.42334 -1.07 0.73 s-0.55 0.66332 -0.73 1.07 s-0.27 0.84332 -0.27 1.31 s0.09 0.90332 0.27 1.31 s0.42334 0.76 0.73 1.06 s0.66332 0.54 1.07 0.72 s0.84332 0.27 1.31 0.27 c0.45334 0 0.88668 -0.09 1.3 -0.27 s0.77 -0.42 1.07 -0.72 s0.54 -0.65334 0.72 -1.06 s0.27 -0.84332 0.27 -1.31 s-0.09 -0.90332 -0.27 -1.31 s-0.42 -0.76332 -0.72 -1.07 s-0.65666 -0.55 -1.07 -0.73 s-0.84668 -0.27 -1.3 -0.27 z M50.78 11.22 l-3.34 8.28 l-1.74 4.24 c-0.06666 0.17334 -0.17332 0.31 -0.31998 0.41 s-0.31332 0.15 -0.49998 0.15 c-0.24 0 -0.44666 -0.08666 -0.62 -0.26 s-0.26 -0.38 -0.26 -0.62 c0 -0.12 0.02 -0.23334 0.06 -0.34 l1.6 -3.92 l-3.2 -7.94 c-0.04 -0.09334 -0.06 -0.20668 -0.06 -0.34002 c0 -0.24 0.08666 -0.44666 0.26 -0.62 s0.38 -0.26 0.62 -0.26 c0.18666 0 0.35666 0.05 0.51 0.15 s0.26334 0.23666 0.33 0.41 l2.5 6.4 l2.52 -6.4 c0.06666 -0.17334 0.17332 -0.31 0.31998 -0.41 s0.31332 -0.15 0.49998 -0.15 c0.25334 0 0.46668 0.08666 0.64002 0.26 s0.26 0.38 0.26 0.62 c0 0.13334 -0.02666 0.24668 -0.08 0.34002 z M58.660000000000004 20.3 l-4.92 -0.000039062 c-0.16 0 -0.31334 -0.04666 -0.46 -0.14 s-0.25332 -0.21334 -0.31998 -0.36 c-0.12 -0.21334 -0.13334 -0.45334 -0.04 -0.72 l0 -13.68 c0 -0.24 0.08666 -0.44666 0.26 -0.62 s0.38668 -0.26 0.64002 -0.26 l4.82 0 c1.0533 0 2.0134 0.22666 2.88 0.68 s1.6067 1.0467 2.22 1.78 s1.0867 1.5667 1.42 2.5 s0.5 1.88 0.5 2.84 c0 1.1867 -0.20334 2.27 -0.61 3.25 s-0.94 1.82 -1.6 2.52 s-1.41 1.2433 -2.25 1.63 s-1.6867 0.58 -2.54 0.58 z M58.64 6.279999999999999 l-3.94 -0.000078126 l0 12.26 l3.96 0 c0.76 0 1.4567 -0.18334 2.09 -0.55 s1.1833 -0.84332 1.65 -1.43 s0.83 -1.2533 1.09 -2 s0.39 -1.4933 0.39 -2.24 c0 -0.76 -0.12666 -1.5033 -0.38 -2.23 s-0.61 -1.3733 -1.07 -1.94 s-1.0133 -1.02 -1.66 -1.36 s-1.3567 -0.51 -2.13 -0.51 z M77.08 20.3 c-0.25334 0 -0.46668 -0.0867 -0.64002 -0.26004 s-0.26 -0.38 -0.26 -0.62 l0 -0.38 c-0.46666 0.4 -0.98666 0.71 -1.56 0.93 s-1.1733 0.33 -1.8 0.33 c-0.70666 0 -1.3733 -0.13666 -2 -0.41 s-1.1733 -0.64334 -1.64 -1.11 s-0.83666 -1.01 -1.11 -1.63 s-0.41 -1.2833 -0.41 -1.99 s0.13666 -1.3733 0.41 -2 s0.64334 -1.1733 1.11 -1.64 s1.0133 -0.83666 1.64 -1.11 s1.2933 -0.41 2 -0.41 c0.62666 0 1.2267 0.11 1.8 0.33 s1.0933 0.53 1.56 0.93 l0 -0.38 c0 -0.24 0.08666 -0.44666 0.26 -0.62 s0.38668 -0.26 0.64002 -0.26 c0.24 0 0.44666 0.08666 0.62 0.26 s0.26 0.38 0.26 0.62 l0 8.54 c0 0.24 -0.08666 0.44666 -0.26 0.62 s-0.38 0.26 -0.62 0.26 z M72.82 11.78 c-0.46666 0 -0.90332 0.09 -1.31 0.27 s-0.76332 0.42334 -1.07 0.73 s-0.55 0.66332 -0.73 1.07 s-0.27 0.84332 -0.27 1.31 s0.09 0.90332 0.27 1.31 s0.42334 0.76332 0.73 1.07 s0.66332 0.54666 1.07 0.72 s0.84332 0.26 1.31 0.26 s0.90332 -0.08666 1.31 -0.26 s0.76332 -0.41334 1.07 -0.72 s0.54666 -0.66332 0.72 -1.07 s0.26 -0.84332 0.26 -1.31 s-0.08666 -0.90332 -0.26 -1.31 s-0.41334 -0.76332 -0.72 -1.07 s-0.66332 -0.55 -1.07 -0.73 s-0.84332 -0.27 -1.31 -0.27 z M83.83999999999999 20.3 c-0.4 0 -0.8033 -0.06666 -1.21 -0.2 s-0.77332 -0.32668 -1.1 -0.58002 s-0.59332 -0.56668 -0.79998 -0.94002 s-0.31 -0.79334 -0.31 -1.26 c0 -0.24 0.08666 -0.44666 0.26 -0.62 s0.38 -0.26 0.62 -0.26 c0.25334 0 0.46668 0.08666 0.64002 0.26 s0.26 0.38 0.26 0.62 c0 0.38666 0.16666 0.68332 0.5 0.88998 s0.71334 0.31 1.14 0.31 c0.46666 0 0.82332 -0.09666 1.07 -0.29 s0.37 -0.51 0.37 -0.95 c0 -0.26666 -0.05 -0.48 -0.15 -0.64 s-0.24334 -0.3 -0.43 -0.42 c-0.10666 -0.06666 -0.21666 -0.12332 -0.33 -0.16998 s-0.23668 -0.09666 -0.37002 -0.15 s-0.27 -0.1 -0.41 -0.14 s-0.28334 -0.08666 -0.43 -0.14 c-0.29334 -0.09334 -0.59 -0.20334 -0.89 -0.33 s-0.57334 -0.29 -0.82 -0.49 s-0.44666 -0.45334 -0.6 -0.76 s-0.23 -0.69332 -0.23 -1.16 c0 -0.42666 0.08 -0.81666 0.24 -1.17 s0.38 -0.65668 0.66 -0.91002 s0.60334 -0.45 0.97 -0.59 s0.75 -0.21 1.15 -0.21 s0.78334 0.07 1.15 0.21 s0.68666 0.33666 0.96 0.59 s0.49334 0.55668 0.66 0.91002 s0.25 0.74334 0.25 1.17 c0 0.24 -0.08666 0.44666 -0.26 0.62 s-0.38668 0.26 -0.64002 0.26 c-0.24 0 -0.44666 -0.08666 -0.62 -0.26 s-0.26 -0.38 -0.26 -0.62 c0 -0.33334 -0.12 -0.6 -0.36 -0.8 s-0.53334 -0.3 -0.88 -0.3 s-0.64 0.1 -0.88 0.3 s-0.36 0.46666 -0.36 0.8 c0 0.30666 0.18666 0.55332 0.56 0.73998 c0.21334 0.12 0.45334 0.22 0.72 0.3 c0.13334 0.06666 0.27334 0.12 0.42 0.16 s0.29332 0.09334 0.43998 0.16 c0.29334 0.10666 0.59 0.23666 0.89 0.39 s0.57 0.34668 0.81 0.58002 s0.43666 0.51668 0.59 0.85002 s0.23 0.74 0.23 1.22 s-0.08334 0.90666 -0.25 1.28 s-0.39666 0.69 -0.69 0.95 s-0.63668 0.45666 -1.03 0.59 s-0.81 0.2 -1.25 0.2 z M97.01999999999998 20.3 c-0.25334 0 -0.46664 -0.08666 -0.63998 -0.26 s-0.26 -0.38 -0.26 -0.62 l0 -5.24 c0 -0.33334 -0.06334 -0.64334 -0.19 -0.93 s-0.3 -0.54 -0.52 -0.76 s-0.47334 -0.39334 -0.76 -0.52 s-0.59666 -0.19 -0.93 -0.19 c-0.32 0 -0.62666 0.06334 -0.92 0.19 s-0.54668 0.3 -0.76002 0.52 s-0.38334 0.47334 -0.51 0.76 s-0.19 0.59666 -0.19 0.93 c0 0.05334 -0.01334 0.10668 -0.04 0.16002 l0 5.08 c0 0.24 -0.08666 0.44666 -0.26 0.62 s-0.38 0.26 -0.62 0.26 c-0.25334 0 -0.46668 -0.08666 -0.64002 -0.26 s-0.26 -0.38 -0.26 -0.62 l0 -14.02 c0 -0.24 0.08666 -0.44666 0.26 -0.62 s0.38668 -0.26 0.64002 -0.26 c0.24 0 0.44666 0.08666 0.62 0.26 s0.26 0.38 0.26 0.62 l0 5.38 c0.34666 -0.25334 0.73 -0.44668 1.15 -0.58002 s0.84334 -0.2 1.27 -0.2 c0.57334 0 1.1133 0.11 1.62 0.33 s0.95 0.52 1.33 0.9 s0.68 0.82334 0.9 1.33 s0.33 1.0467 0.33 1.62 l0 5.24 c0 0.24 -0.08666 0.44666 -0.26 0.62 s-0.38 0.26 -0.62 0.26 z"></path></g><g id="SvgjsG1016" featurekey="dDj50M-0" transform="matrix(0.5009123936159527,0,0,0.5009123936159527,34.79963499478289,256.3351474130977)" fill="#fdfdcb"><path d="M11.3 20 l-1.58 -4.14 l-5.82 0 l-1.58 4.14 l-1.92 0 l5.48 -14.24 l1.86 0 l5.5 14.24 l-1.94 0 z M9.02 14.1 l-2.2 -5.76 l-2.22 5.76 l4.42 0 z M28.26 18.46 c1.78 0 3.44 -0.82 4.54 -2.26 l1.4 1.04 c-1.42 1.9 -3.6 2.98 -5.94 2.98 c-4.12 0 -7.46 -3.34 -7.46 -7.46 c0 -4.1 3.34 -7.44 7.46 -7.44 c2.36 0 4.54 1.1 5.96 3 l-1.42 1.04 c-1.08 -1.46 -2.74 -2.28 -4.54 -2.28 c-3.16 0 -5.7 2.54 -5.7 5.68 c0 3.16 2.54 5.7 5.7 5.7 z M52.739999999999995 20 l-1.58 -4.14 l-5.82 0 l-1.58 4.14 l-1.92 0 l5.48 -14.24 l1.86 0 l5.5 14.24 l-1.94 0 z M50.459999999999994 14.1 l-2.2 -5.76 l-2.22 5.76 l4.42 0 z M62.86 20 l0 -14.24 l4.6 0 c4.04 0 7.32 3.2 7.32 7.12 s-3.28 7.12 -7.32 7.12 l-4.6 0 z M67.46000000000001 18.26 c3.06 0 5.54 -2.44 5.54 -5.38 s-2.48 -5.38 -5.54 -5.38 l-2.82 0 l0 10.76 l2.82 0 z M83.38 20 l0 -14.24 l9 0 l0 1.72 l-7.2 0 l0 3.34 l6.28 0 l0 1.78 l-6.28 0 l0 5.64 l7.02 0 l0 1.76 l-8.82 0 z M114.06 20 l-1.78 0 l0 -11.36 l-4.54 6.2 l-4.52 -6.2 l0 11.36 l-1.78 0 l0 -14.24 l1.88 0 l4.42 6.08 l4.42 -6.08 l1.9 0 l0 14.24 z M124.71999999999998 20 l0 -14.24 l1.8 0 l0 14.24 l-1.8 0 z M143.15999999999997 18.46 c1.78 0 3.44 -0.82 4.54 -2.26 l1.4 1.04 c-1.42 1.9 -3.6 2.98 -5.94 2.98 c-4.12 0 -7.46 -3.34 -7.46 -7.46 c0 -4.1 3.34 -7.44 7.46 -7.44 c2.36 0 4.54 1.1 5.96 3 l-1.42 1.04 c-1.08 -1.46 -2.74 -2.28 -4.54 -2.28 c-3.16 0 -5.7 2.54 -5.7 5.68 c0 3.16 2.54 5.7 5.7 5.7 z M168.92 20 l0 -14.24 l4.96 0 c0.9 0 1.76 0.36 2.4 1 s1 1.5 1 2.4 c0 1.88 -1.54 3.38 -3.4 3.38 l-3.18 0 l0 7.46 l-1.78 0 z M173.88 10.8 c0.88 0 1.6 -0.74 1.6 -1.64 s-0.72 -1.66 -1.6 -1.66 l-3.18 0 l0 3.3 l3.18 0 z M191.5 12.42 l5.5 7.58 l-2.06 0 l-5.44 -7.48 l-2.04 0 l0 7.48 l-1.72 0 l0 -14.24 l4.94 0 c0.9 0 1.74 0.36 2.38 1 s1 1.48 1 2.38 c0 1.58 -1.1 2.9 -2.56 3.28 z M187.46 7.48 l0 3.32 l3.22 0 c0.92 0 1.66 -0.74 1.66 -1.66 s-0.74 -1.66 -1.66 -1.66 l-3.22 0 z M210.58 5.32 c4.1 0 7.46 3.34 7.46 7.46 c0 4.1 -3.36 7.42 -7.46 7.42 s-7.44 -3.32 -7.44 -7.42 c0 -4.12 3.34 -7.46 7.44 -7.46 z M210.58 18.44 c3.12 0 5.64 -2.56 5.64 -5.66 c0 -3.12 -2.52 -5.7 -5.64 -5.7 s-5.64 2.58 -5.64 5.7 c0 3.1 2.52 5.66 5.64 5.66 z M233.42000000000002 10.84 l5.92 0 l0 6.3 c-1.42 1.9 -3.66 3.08 -6.02 3.08 c-4.1 0 -7.44 -3.34 -7.44 -7.46 c0 -4.1 3.34 -7.44 7.44 -7.44 c2.02 0 3.9 0.8 5.28 2.2 l-1.32 1.16 c-1.04 -1.04 -2.46 -1.6 -3.96 -1.6 c-3.14 0 -5.68 2.54 -5.68 5.68 c0 3.16 2.54 5.7 5.68 5.7 c1.66 0 3.18 -0.7 4.28 -1.92 l0 -3.94 l-4.18 0 l0 -1.76 z M254.08 12.42 l5.5 7.58 l-2.06 0 l-5.44 -7.48 l-2.04 0 l0 7.48 l-1.72 0 l0 -14.24 l4.94 0 c0.9 0 1.74 0.36 2.38 1 s1 1.48 1 2.38 c0 1.58 -1.1 2.9 -2.56 3.28 z M250.04000000000002 7.48 l0 3.32 l3.22 0 c0.92 0 1.66 -0.74 1.66 -1.66 s-0.74 -1.66 -1.66 -1.66 l-3.22 0 z M267.06 20 l0 -14.24 l9 0 l0 1.72 l-7.2 0 l0 3.34 l6.28 0 l0 1.78 l-6.28 0 l0 5.64 l7.02 0 l0 1.76 l-8.82 0 z M290.08000000000004 20.14 c-0.48 0 -0.96 -0.06 -1.44 -0.16 c-1.48 -0.3 -2.94 -1.04 -4.24 -2.16 l1.18 -1.34 c1.06 0.92 2.24 1.54 3.42 1.78 c1 0.22 1.98 0.14 2.76 -0.22 c0.52 -0.24 1.42 -0.84 1.42 -2.06 c0 -1.5 -1.6 -2.04 -3.16 -2.34 c-0.14 -0.02 -2.38 -0.48 -3.28 -1 c-1.2 -0.72 -1.84 -1.8 -1.84 -3.12 c0 -0.74 0.24 -1.44 0.66 -2.06 c0.42 -0.56 1 -1.02 1.68 -1.34 c1 -0.48 2.18 -0.62 3.38 -0.42 c1.3 0.22 2.62 0.84 3.78 1.8 l-1.14 1.38 c-2.06 -1.7 -4.06 -1.74 -5.26 -1.18 c-0.82 0.38 -1.3 1.08 -1.3 1.8 c0 1.36 1.16 1.88 3 2.28 c0.76 0.18 2.34 0.44 3.28 0.98 c1.3 0.72 1.98 1.84 1.98 3.22 c0 0.82 -0.22 1.58 -0.68 2.24 c-0.42 0.6 -1.06 1.06 -1.78 1.42 c-0.76 0.38 -1.54 0.5 -2.42 0.5 z M308.58000000000004 20.14 c-0.48 0 -0.96 -0.06 -1.44 -0.16 c-1.48 -0.3 -2.94 -1.04 -4.24 -2.16 l1.18 -1.34 c1.06 0.92 2.24 1.54 3.42 1.78 c1 0.22 1.98 0.14 2.76 -0.22 c0.52 -0.24 1.42 -0.84 1.42 -2.06 c0 -1.5 -1.6 -2.04 -3.16 -2.34 c-0.14 -0.02 -2.38 -0.48 -3.28 -1 c-1.2 -0.72 -1.84 -1.8 -1.84 -3.12 c0 -0.74 0.24 -1.44 0.66 -2.06 c0.42 -0.56 1 -1.02 1.68 -1.34 c1 -0.48 2.18 -0.62 3.38 -0.42 c1.3 0.22 2.62 0.84 3.78 1.8 l-1.14 1.38 c-2.06 -1.7 -4.06 -1.74 -5.26 -1.18 c-0.82 0.38 -1.3 1.08 -1.3 1.8 c0 1.36 1.16 1.88 3 2.28 c0.76 0.18 2.34 0.44 3.28 0.98 c1.3 0.72 1.98 1.84 1.98 3.22 c0 0.82 -0.22 1.58 -0.68 2.24 c-0.42 0.6 -1.06 1.06 -1.78 1.42 c-0.76 0.38 -1.54 0.5 -2.42 0.5 z M333.66 20 l0 -14.24 l1.8 0 l0 14.24 l-1.8 0 z M355.16 20 l-7.62 -11.26 l0 11.26 l-1.8 0 l0 -14.24 l1.96 0 l7.6 11.26 l0 -11.26 l1.8 0 l0 14.24 l-1.94 0 z M378.26 20 l0 -14.24 l9 0 l0 1.72 l-7.2 0 l0 3.34 l6.28 0 l0 1.78 l-6.28 0 l0 5.64 l7.02 0 l0 1.76 l-8.82 0 z M395.2 5.76 l1.94 0 l4.48 11.66 l4.5 -11.66 l1.92 0 l-5.48 14.24 l-1.86 0 z M416.16 20 l0 -14.24 l9 0 l0 1.72 l-7.2 0 l0 3.34 l6.28 0 l0 1.78 l-6.28 0 l0 5.64 l7.02 0 l0 1.76 l-8.82 0 z M439.76000000000005 12.42 l5.5 7.58 l-2.06 0 l-5.44 -7.48 l-2.04 0 l0 7.48 l-1.72 0 l0 -14.24 l4.94 0 c0.9 0 1.74 0.36 2.38 1 s1 1.48 1 2.38 c0 1.58 -1.1 2.9 -2.56 3.28 z M435.72 7.48 l0 3.32 l3.22 0 c0.92 0 1.66 -0.74 1.66 -1.66 s-0.74 -1.66 -1.66 -1.66 l-3.22 0 z M455.62 20 l0 -7.2 l-5.02 -7.04 l2.2 0 l3.74 5.22 l3.74 -5.22 l2.18 0 l-5.02 7.04 l0 7.2 l-1.82 0 z M481.84000000000003 20 l0 -14.24 l4.96 0 c0.9 0 1.76 0.36 2.4 1 s1 1.5 1 2.4 c0 1.88 -1.54 3.38 -3.4 3.38 l-3.18 0 l0 7.46 l-1.78 0 z M486.8 10.8 c0.88 0 1.6 -0.74 1.6 -1.64 s-0.72 -1.66 -1.6 -1.66 l-3.18 0 l0 3.3 l3.18 0 z M499.36 20 l0 -14.24 l1.8 0 l0 14.24 l-1.8 0 z M521.16 20 l-4.26 -5.96 l-4.28 5.96 l-2.18 0 l5.36 -7.48 l-4.84 -6.76 l2.2 0 l3.74 5.22 l3.74 -5.22 l2.18 0 l-4.84 6.76 l5.36 7.48 l-2.18 0 z M532.02 20 l0 -14.24 l9 0 l0 1.72 l-7.2 0 l0 3.34 l6.28 0 l0 1.78 l-6.28 0 l0 5.64 l7.02 0 l0 1.76 l-8.82 0 z M549.78 20 l0 -14.24 l1.8 0 l0 12.5 l7.8 0 l0 1.74 l-9.6 0 z"></path></g></svg>